<?xml version="1.0" encoding="utf-8"?>
<!-- Generator: Adobe Illustrator 24.0.0, SVG Export Plug-In . SVG Version: 6.00 Build 0)  -->
<svg version="1.1" id="Layer_1" xmlns="http://www.w3.org/2000/svg" xmlns:xlink="http://www.w3.org/1999/xlink" x="0px" y="0px"
	 viewBox="0 0 512 561.6" style="enable-background:new 0 0 512 561.6;" xml:space="preserve">
<style type="text/css">
	.st0{fill:#F1E3FF;}
	.st1{fill:#FFDFBA;}
	.st2{fill:#692086;}
	.st3{fill:#44126E;}
	.st4{fill:#FFEBD2;}
	.st5{fill:#FFF3E4;}
	.st6{fill:#FFD6A6;}
	.st7{fill:#561688;}
	.st8{fill:#542282;}
	.st9{fill:#672084;}
	.st10{fill:#220A0E;}
</style>
<rect class="st0" width="512" height="572"/>
<path class="st1" d="M420.2,502.6v41.9c0,4.7-3.8,8.5-8.5,8.5H100.3c-4.7,0-8.5-3.8-8.5-8.5v-41.9c0-43.9,35.6-79.5,79.6-79.5
	c15.5,0,29.2-8,37.1-20.1c7.9-12.2,7.1-22.7,7.1-31.3l0.2-0.4c-38.3-15.8-65.2-53.6-65.2-97.6v-3.3c-15.2,0-26.7-12-26.7-26.2v-44.3
	c-0.3-15.4,0.4-69.9,39.7-107.8C209.1,48.1,281.6,51.7,334,75.3c1.7,0.8,1.7,3.2-0.1,3.9l-13.7,5.6c-2,0.8-1.6,3.9,0.6,4.1l6.6,0.7
	c31.8,3.4,61.4,20.7,79.7,49.4c0.5,0.8,0.4,2-0.3,2.6c-11.3,12-17.6,27.8-17.6,44.3v58.2c0,14.5-11.7,26.2-26.2,26.2h-1.6v3.3
	c0,44-26.9,81.7-65.2,97.6l0.2,0.4c0,8.3-0.9,19,7.1,31.3c7.9,12.1,21.5,20.1,37.1,20.1C384.6,423.1,420.2,458.7,420.2,502.6
	L420.2,502.6z"/>
<path class="st2" d="M420.2,502.1v41.9c0,4.7-3.8,8.5-8.5,8.5H100.3c-4.7,0-8.5-3.8-8.5-8.5v-41.9c0-43.9,35.6-79.5,79.5-79.5
	c15.5,0,29.2-8,37.1-20.1c27.5,23.5,67.8,23.5,95.2,0c7.9,12.1,21.5,20.1,37.1,20.1C384.6,422.6,420.2,458.1,420.2,502.1
	L420.2,502.1z"/>
<path class="st3" d="M407.2,139.1c0.5,0.8,0.4,2-0.3,2.6c-11.3,12-17.6,27.8-17.6,44.3v58.2c0,13.2-10,26.2-27.7,26.2v-65.9
	c0-28.3-22.9-51.2-51.2-51.2H201.6c-28.3,0-51.2,22.9-51.2,51.2v65.9c-15.2,0-26.7-12-26.7-26.2v-44.3
	c-0.3-15.4,0.4-69.9,39.7-107.8C209.1,48.1,281.6,51.7,334,75.3c1.7,0.8,1.7,3.2-0.1,3.9l-13.7,5.6c-2,0.8-1.6,3.9,0.6,4.1l6.6,0.7
	C359.3,93,388.9,110.3,407.2,139.1z"/>
<path class="st4" d="M361.6,273.7c0,58.3-47.3,105.6-105.6,105.6c-54.9,0-105.6-42.7-105.6-108.9v-65.9c0-28.3,22.9-51.2,51.2-51.2
	h108.8c28.3,0,51.2,22.9,51.2,51.2V273.7z"/>
<path class="st5" d="M232.1,341.9c17.4,10.9,3.7,37.5-15.3,29.9c-39.1-15.7-66.3-53.8-66.3-98v-69.2c0-10.8,3.3-20.7,9-29
	c6.9-10.1,23-5.6,23,7.6v69.2C182.4,291.3,202.9,323.6,232.1,341.9L232.1,341.9z"/>
<path class="st6" d="M297.7,389.2c-26.3,11-55.2,11.9-83.5,0c1.4-6,1.2-9.9,1.2-17.5l0.2-0.4c25.7,10.7,55,10.7,80.7,0l0.2,0.4
	C296.5,379.3,296.3,383.2,297.7,389.2L297.7,389.2z"/>
<path class="st7" d="M214.3,448.9c-3.9,1.2-8.2,1.9-12.7,2c-44,0.4-80,35.2-80,79.3v8c0,8.2-6.7,14.9-14.9,14.9h-6.4
	c-4.7,0-8.5-3.8-8.5-8.5v-41.9c0-43.9,35.6-79.5,79.5-79.5c15.5,0,29.2-8,37.1-20.1c3.2,2.7,6.6,5.1,10.1,7.3
	C234.3,419.6,231.8,443.4,214.3,448.9L214.3,448.9z"/>
<path class="st8" d="M297.7,448.9c3.9,1.2,8.2,1.9,12.7,2c44,0.4,80,35.2,80,79.3v8c0,8.2,6.7,14.9,14.9,14.9h6.4
	c4.7,0,8.5-3.8,8.5-8.5v-41.9c0-43.9-35.6-79.5-79.5-79.5c-15.5,0-29.2-8-37.1-20.1c-3.2,2.7-6.6,5.1-10.1,7.3
	C277.7,419.6,280.2,443.4,297.7,448.9L297.7,448.9z"/>
<path class="st9" d="M334,79.2c-12.5,5.2-14.3,6.3-18.7,5.6c-70-10.9-131.5,18.1-152.4,86.2v0c-7.8,9-12.5,20.7-12.5,33.5v40
	c0,17.3-26.7,18.5-26.7-0.3v-44.3c-0.3-15.4,0.4-69.9,39.7-107.8C209.1,48.1,281.6,51.7,334,75.3C335.8,76,335.7,78.5,334,79.2
	L334,79.2z"/>
<path class="st10" d="M428.8,502.6V553c0,4.7-3.8,8.5-8.5,8.5s-8.5-3.8-8.5-8.5v-50.4c0-39.2-31.8-71-71-71
	c-18.6,0-35.4-9.5-45.1-25.3c-2.5-4-1.2-9.3,2.8-11.7c4-2.5,9.3-1.2,11.7,2.8c6.5,10.7,17.9,17.1,30.5,17.1
	C389.4,414.6,428.8,453.9,428.8,502.6L428.8,502.6z M279.9,417.1c1,4.6-1.9,9.1-6.5,10.2c-22.5,4.9-45.3,0-63.5-12.4
	c-18,19.3-41.8,16.8-38.6,16.8c-39.2,0-71,31.8-71,71V553c0,4.7-3.8,8.5-8.5,8.5c-4.7,0-8.5-3.8-8.5-8.5v-50.4
	c0-48.7,39.4-88.1,88.1-88.1c19.7,0,35.7-15.9,35.7-35.6v-2.2c-37.2-17.8-63.4-55.2-65-98.8c-15.3-3.7-26.7-17.4-26.7-33.7V200
	c-0.5-21.7,2.7-75.9,42.3-114c48.8-47.1,127.1-44.1,184.7-16.4c5.6,2.7,6.5,10.3,1.8,14.2c29.2,7.1,54.3,25,70.5,50.7
	c0.8,1.3,2.4,3.4,2,6.7c-0.2,2.1-0.9,3.8-2.4,5.4c-10.4,10.5-16.1,24.5-16.1,39.4v58.2c0,4.7-3.8,8.5-8.5,8.5s-8.5-3.8-8.5-8.5V186
	c0-17.1,5.8-33.3,16.6-46.4c-16.4-23.4-41.9-38.4-70.7-41.5l-15-1.6c-8.8-0.9-10.5-13-2.3-16.4l6.8-2.8
	c-88.8-31-183.8,3.4-183.8,122.6v44.3c0,6.8,3.9,12.7,9.6,15.6v-55.3c0-32.9,26.8-59.7,59.7-59.7h108.8c32.9,0,59.7,26.8,59.7,59.7
	v69.9c0,74.2-72.5,130.6-146.3,108.8c-0.5,6.1-2,12-4.5,17.4c14.4,9.9,32.5,13.8,50.4,9.9C274.3,409.6,278.9,412.5,279.9,417.1
	L279.9,417.1z M256,370.8c53.5,0,97.1-43.5,97.1-97.1v-69.2c0-23.5-19.1-42.7-42.7-42.7H201.6c-23.5,0-42.7,19.1-42.7,42.7v69.2
	C158.9,327.2,202.5,370.8,256,370.8L256,370.8z M342.4,517.8h-25.6c-4.7,0-8.5,3.8-8.5,8.5s3.8,8.5,8.5,8.5h25.6
	c4.7,0,8.5-3.8,8.5-8.5S347.1,517.8,342.4,517.8z"/>
</svg>
