<svg xmlns="http://www.w3.org/2000/svg" xmlns:xlink="http://www.w3.org/1999/xlink" viewBox="0 0 139.88 140.88"><defs><style>.cls-1{isolation:isolate;}.cls-2,.cls-3{fill:#fff;}.cls-2{opacity:0.3;}.cls-3{opacity:0.5;}.cls-4{fill:#c7a3aa;}.cls-20,.cls-23,.cls-26,.cls-28,.cls-30,.cls-4,.cls-43,.cls-6,.cls-8,.cls-9{mix-blend-mode:multiply;}.cls-5,.cls-6{fill:#ff5851;}.cls-43,.cls-7{fill:#5d323b;}.cls-12,.cls-9{fill:#ff8580;}.cls-10{fill:#ffd7bf;}.cls-11{fill:#ffbf99;}.cls-13{fill:#404040;}.cls-14{fill:#262626;}.cls-15,.cls-23{fill:#999;}.cls-16{fill:#d9d9d9;}.cls-17{fill:url(#Áåçûìÿííûé_ãðàäèåíò_33);}.cls-18{fill:#e6e6e6;mix-blend-mode:screen;}.cls-19{fill:#f2f2f2;}.cls-20{fill:#b3b3b3;}.cls-21{fill:url(#Áåçûìÿííûé_ãðàäèåíò_33-2);}.cls-22{fill:url(#Áåçûìÿííûé_ãðàäèåíò_33-3);}.cls-24{fill:#666;}.cls-25,.cls-26{fill:#ff8b24;}.cls-27{fill:#8395cc;}.cls-28,.cls-31{fill:#28878b;}.cls-29,.cls-30{fill:#32a8ad;}.cls-32{fill:#f7f7f7;}.cls-33{fill:#e4dce7;}.cls-34{fill:#66462d;}.cls-35{fill:#c4c4c4;}.cls-36{fill:#e6b573;}.cls-37{fill:#fff1d9;}.cls-38{fill:#ffe6bc;}.cls-39{fill:#ad774d;}.cls-40{fill:#733e49;}.cls-41{fill:#333;}.cls-42{fill:#663741;}</style><linearGradient id="Áåçûìÿííûé_ãðàäèåíò_33" x1="47.94" y1="131.1" x2="82.52" y2="131.1" gradientUnits="userSpaceOnUse"><stop offset="0" stop-color="#ccc"/><stop offset="1" stop-color="#999"/></linearGradient><linearGradient id="Áåçûìÿííûé_ãðàäèåíò_33-2" x1="60.42" y1="126.73" x2="70.03" y2="126.73" xlink:href="#Áåçûìÿííûé_ãðàäèåíò_33"/><linearGradient id="Áåçûìÿííûé_ãðàäèåíò_33-3" x1="61.03" y1="117.7" x2="69.43" y2="117.7" xlink:href="#Áåçûìÿííûé_ãðàäèåíò_33"/></defs><title>Asset 1</title><g class="cls-1"><g id="Layer_2" data-name="Layer 2"><g id="Layer"><circle class="cls-2" cx="69.94" cy="69.94" r="69.94"/><circle class="cls-3" cx="69.94" cy="69.94" r="54.98"/><circle class="cls-3" cx="69.94" cy="69.94" r="40.96"/><polygon class="cls-4" points="70.24 140.33 87.73 140.03 122.28 120.21 81.42 96.31 62.56 124 50.57 134.27 70.24 140.33"/><path class="cls-5" d="M89.53,106.14c-.09.36-.25.69-.36,1-.24.85-.1,1.77-.28,2.64a4.29,4.29,0,0,1-2.46,2.89,5.49,5.49,0,0,1-1.38.41,7.08,7.08,0,0,1-2.47,0,1.77,1.77,0,0,1-.8-.3,1.58,1.58,0,0,1-.41-1.59,5.25,5.25,0,0,1,.39-1.09l0-.07a59.43,59.43,0,0,0,2.33-5.74l.3-.93h0a9,9,0,0,1,.34-.91,1.32,1.32,0,0,1,1.49-.9,3.28,3.28,0,0,1,1.79.84,5.41,5.41,0,0,1,1.27,1.67A3.29,3.29,0,0,1,89.53,106.14Z"/><path class="cls-6" d="M89.53,106.14c-.09.36-.25.69-.36,1-.24.85-.1,1.77-.28,2.64a4.29,4.29,0,0,1-2.46,2.89,5.49,5.49,0,0,1-1.38.41,6.1,6.1,0,0,0,1.85-2.71,24.27,24.27,0,0,0,.6-4.67,1.85,1.85,0,0,0,0-.91,1.22,1.22,0,0,0-.86-.63c-.75-.19-1.78-.21-2.17-.84h0a9,9,0,0,1,.34-.91,1.32,1.32,0,0,1,1.49-.9,3.28,3.28,0,0,1,1.79.84,5.41,5.41,0,0,1,1.27,1.67A3.29,3.29,0,0,1,89.53,106.14Z"/><path class="cls-5" d="M77.51,100.56a2.38,2.38,0,0,1-1.33,1.16,5.27,5.27,0,0,0-1.65.75,6.75,6.75,0,0,0-.55.65,8.45,8.45,0,0,1-1.74,1.69,4.59,4.59,0,0,1-2.46,1,4.71,4.71,0,0,1-1.12-.14h0A2,2,0,0,1,67.5,105a2.29,2.29,0,0,1-.36-1.14,3.3,3.3,0,0,1,1-2.63,4.9,4.9,0,0,1,1.23-.77c.6-.28,1.15-.59,1.74-.91a4.48,4.48,0,0,0,1.33-1c.15-.18.32-.36.47-.56l.15-.21a3.17,3.17,0,0,0,.51-1A11.24,11.24,0,0,1,74,95.58a.76.76,0,0,1,.2-.27c.22-.17.53,0,.79.08a2.3,2.3,0,0,0,1,.27,1,1,0,0,0,.67-.25.83.83,0,0,0,.16-.21c0,.12,0,.24.08.35.14.56.28,1.09.45,1.62a11.47,11.47,0,0,1,.43,1.6A3,3,0,0,1,77.51,100.56Z"/><path class="cls-6" d="M77.51,100.56a2.38,2.38,0,0,1-1.33,1.16,5.27,5.27,0,0,0-1.65.75,6.75,6.75,0,0,0-.55.65,8.45,8.45,0,0,1-1.74,1.69,4.59,4.59,0,0,1-2.46,1,4.71,4.71,0,0,1-1.12-.14,7,7,0,0,0,4-2.63,8.45,8.45,0,0,1,1.92-2.41c.31-.2.67-.33,1-.53.51-.33,1-1.11.23-1.45a3.53,3.53,0,0,0-.8-.14,4,4,0,0,1-2-.76,3.17,3.17,0,0,0,.51-1A11.24,11.24,0,0,1,74,95.58a.76.76,0,0,1,.2-.27c.22-.17.53,0,.79.08a2.3,2.3,0,0,0,1,.27,1,1,0,0,0,.67-.25l.24.14c.14.56.28,1.09.45,1.62a11.47,11.47,0,0,1,.43,1.6A3,3,0,0,1,77.51,100.56Z"/><path class="cls-7" d="M80.05,64.56q-.15,6-.41,12.06c-.07,1.56-.33,3-.38,4.61s-.11,3.31-.28,5c-.18,1.84-.47,3.67-.8,5.48a27.49,27.49,0,0,0-.7,5.24.73.73,0,0,1,0,.3.46.46,0,0,1-.15.16,2.86,2.86,0,0,1-1.58.66,2.43,2.43,0,0,1-.38,0,3.64,3.64,0,0,1-2-.63.67.67,0,0,1-.15-.14.43.43,0,0,1,0-.22c-.05-.89,0-1.74-.05-2.62s-.12-1.92-.2-2.88q-.23-2.88-.63-5.73c-.33-2.38-.61-4.75-1-7.14s-.65-5-.8-7.56c-.13-2.1-.27-10.19-.13-12.08.2-2.57.24-7.61,3.87-7.88a3.45,3.45,0,0,1,1.83.39,4.28,4.28,0,0,1,.86.54,7,7,0,0,1,1.74,2.32C80.16,57.52,80.13,61.12,80.05,64.56Z"/><g class="cls-8"><path class="cls-7" d="M80.05,64.56q-.15,6-.41,12.06c-.07,1.56-.33,3-.38,4.61s-.11,3.31-.28,5c-.18,1.84-.47,3.67-.8,5.48a27.49,27.49,0,0,0-.7,5.24.73.73,0,0,1,0,.3.46.46,0,0,1-.15.16,2.86,2.86,0,0,1-1.58.66c.17-1.81.38-3.62.51-5.42.24-3.76.45-7.52.59-11.28a38.5,38.5,0,0,0-.29-8.17c-.49-2.77-1.91-5.18-2.61-7.9C72.82,60.94,72.83,55.6,75.7,52l.35-.42a4.28,4.28,0,0,1,.86.54,7,7,0,0,1,1.74,2.32C80.16,57.52,80.13,61.12,80.05,64.56Z"/></g><path class="cls-7" d="M90.35,94.87c0,.24-.07.47-.11.72-.2,1.3-1.16,5.8-1.34,6.76,0,.25,0,.59-.2.78a1.24,1.24,0,0,1-.49.27,5,5,0,0,1-.67.16,4.42,4.42,0,0,1-1.81-.1,2.68,2.68,0,0,1-1-.48.72.72,0,0,1-.18-.21.44.44,0,0,1,0-.2c-.08-1.32-.16-2.65-.29-4-.25-2.63-.62-5.26-1.11-7.87C82.45,87,81.32,83.38,81,79.59c-.16-1.25-.27-2.5-.35-3.73A45,45,0,0,0,79,68a.84.84,0,0,0-.21-.42,1,1,0,0,0-.32-.14,5.18,5.18,0,0,1-3.22-1.78,5.1,5.1,0,0,1-.64-2.41c0-.25,0-.51-.06-.76a46,46,0,0,1,.13-8.38c0,.23.82.71,1,.74.36.06.83-.1,1.21-.08a24.06,24.06,0,0,1,3.15.52,11.38,11.38,0,0,0,4.39-.13,11.63,11.63,0,0,0,5-2.41,47.52,47.52,0,0,1,1.31,10.15A75.69,75.69,0,0,1,90,74.49c-.25,1.92-.57,3.84-.88,5.75-.27,1.73.36,3.19.83,4.82a20.6,20.6,0,0,1,.82,4.67A26.74,26.74,0,0,1,90.35,94.87Z"/><g class="cls-8"><path class="cls-7" d="M90.35,94.87c0,.24-.07.47-.11.72-.2,1.3-1.16,5.8-1.34,6.76,0,.25,0,.59-.2.78a1.24,1.24,0,0,1-.49.27,5,5,0,0,1-.67.16l-.12-5.26c-.07-3.09-.14-6.18-.41-9.25-.38-4.26-1.12-8.48-1.4-12.74-.14-2.25-.14-4.51-.14-6.76a59.08,59.08,0,0,0-.77-11.66,14.19,14.19,0,0,1-.31-2.7,11.63,11.63,0,0,0,5-2.41,47.52,47.52,0,0,1,1.31,10.15A75.69,75.69,0,0,1,90,74.49c-.25,1.92-.57,3.84-.88,5.75-.27,1.73.36,3.19.83,4.82a20.6,20.6,0,0,1,.82,4.67A26.74,26.74,0,0,1,90.35,94.87Z"/></g><path class="cls-5" d="M91.45,30.25a6.33,6.33,0,0,0-.69,1.91c-.27,1-.57,1.91-.84,2.87a33.49,33.49,0,0,0-.8,3.54,34.42,34.42,0,0,0,.51,13.85,3,3,0,0,1,.14,1.06c-.12.86-1,1.42-1.75,1.81a24.2,24.2,0,0,1-3.57,1.39,23.32,23.32,0,0,1-6.31,1A12,12,0,0,1,71.25,56a.78.78,0,0,1-.3-.27,1,1,0,0,1-.08-.49,16.24,16.24,0,0,1,0-3A10.09,10.09,0,0,0,71.1,50c0-2-.15-4-.33-6-.1-1.14-.17-2.28-.35-3.41s-.23-2.13-.42-3.2a61.9,61.9,0,0,1-1.21-6.88,12.93,12.93,0,0,1,0-1.39A6.86,6.86,0,0,1,69,27.49a4.17,4.17,0,0,1,1.54-2.34,6.74,6.74,0,0,1,2.94-.84,19.62,19.62,0,0,0,2-.28,6.38,6.38,0,0,1,1.08-.1h.18c1.3-.07,2.53-.69,3.9-.48a10.21,10.21,0,0,1,2.13.76,11.77,11.77,0,0,1,1.37.7l.39.21c.25.14.5.27.74.42,1,.52,1.91,1.07,2.85,1.62a15.46,15.46,0,0,1,3.27,2.28.76.76,0,0,1,.17.23A.62.62,0,0,1,91.45,30.25Z"/><path class="cls-9" d="M89.77,53.48c-.12.86-1,1.42-1.75,1.81a24.2,24.2,0,0,1-3.57,1.39c-.09-.63-.18-1.25-.26-1.88a102.07,102.07,0,0,1-.74-11.46c0-4.63.34-9.51,2.92-13.34l.27,1.11a.75.75,0,0,1,1,.15,2.1,2.1,0,0,1,.42,1c.34,1.6.59,3.21.83,4.82.08.49.15,1,.23,1.47a34.42,34.42,0,0,0,.51,13.85A3,3,0,0,1,89.77,53.48Z"/><path class="cls-10" d="M82.27,25.78a7.18,7.18,0,0,1-.59,1,8.12,8.12,0,0,1-2.39,2.28,6.65,6.65,0,0,1-.75.39l-.06,0c-.23.09-.51.23-.66-.05,0-.08-.07-.17-.11-.24a.61.61,0,0,0-.44-.31,2.08,2.08,0,0,0-.35,0,.56.56,0,0,1-.33-.08c-.21-.14-.06-.38,0-.57a.9.9,0,0,0-.18-.66c-.15-.21-.32-.25-.52-.38-.39-.23-.33-.84-.15-1.19a3.57,3.57,0,0,1,.87-.95,9.63,9.63,0,0,0,1.89-2.51,14.17,14.17,0,0,0,.74-1.69,15.71,15.71,0,0,0,.66-2.22c.18.59.37,1.18.55,1.76,0,.18.11.35.16.53a12.93,12.93,0,0,0,.51,1.48,3.82,3.82,0,0,0,.72,1.13,3,3,0,0,1,.68.75A1.75,1.75,0,0,1,82.27,25.78Z"/><path class="cls-11" d="M82.47,24.27a6.87,6.87,0,0,1-.25,1.16,6.71,6.71,0,0,1-.54,1.34,12.72,12.72,0,0,1-.82,1.37,6.38,6.38,0,0,1-1.15,1.28,3,3,0,0,1-1.54.71c.13-.23.25-.46.37-.69a10.89,10.89,0,0,0,.67-1.75,7.07,7.07,0,0,0,.26-1.76,5,5,0,0,0-.13-1.08,8.35,8.35,0,0,0-.65-1.79,4.86,4.86,0,0,1-.24-.53,1.08,1.08,0,0,1,0-.88,2.13,2.13,0,0,1,.71-.81,2.22,2.22,0,0,1,.93-.44.86.86,0,0,1,.28,0c0,.18.11.35.16.53a12.93,12.93,0,0,0,.51,1.48,3.82,3.82,0,0,0,.72,1.13A3,3,0,0,1,82.47,24.27Z"/><path class="cls-12" d="M76.28,27.18a1.84,1.84,0,0,0,.29.85,2.79,2.79,0,0,0,.6.68,1.94,1.94,0,0,0,.29.21c-.08.31-.51,1.55-.63,1.86a2.53,2.53,0,0,1-.94-1.61,2.37,2.37,0,0,1,0-.84,5.54,5.54,0,0,1,.17-.58C76.14,27.56,76.2,27.37,76.28,27.18Z"/><path class="cls-12" d="M81.25,25.51a5.41,5.41,0,0,1-1,1.61,6.28,6.28,0,0,1-2,1.52,2.39,2.39,0,0,1-.85.26c0,.17.25,2.13.27,2.13a6.78,6.78,0,0,0,2.77-1.48,8.13,8.13,0,0,0,1.86-2A4,4,0,0,0,83,25a2.74,2.74,0,0,0-.52-1.37,2.44,2.44,0,0,0-.56-.55c-.21-.15-.47-.23-.68-.38A3.78,3.78,0,0,1,81.4,25,4,4,0,0,1,81.25,25.51Z"/><path class="cls-10" d="M80.83,21.29a4.21,4.21,0,0,1-1.53,1.52.86.86,0,0,0-.31.29.83.83,0,0,0-.06.35,3.85,3.85,0,0,1-.09,1.08,7.65,7.65,0,0,1-.44,1.12,4.23,4.23,0,0,1-.89,1,9.34,9.34,0,0,1-3.54,2,2.09,2.09,0,0,1-.34.08.76.76,0,0,1-.21,0,1.33,1.33,0,0,1-1.1-.46,3,3,0,0,1-.46-1c-.11-.34-.18-.69-.32-1a1.77,1.77,0,0,0-.45-.62c-.19-.11-.46,0-.64-.13a.38.38,0,0,1-.14-.28.88.88,0,0,1,0-.32,4.27,4.27,0,0,0-.7-3.08A5.49,5.49,0,0,1,69,21a9.35,9.35,0,0,1-.45-2.32c-.18-.88-.66-1.78.22-2.48a3.39,3.39,0,0,1,2-.24,11.55,11.55,0,0,1,2.18.3l.34.1a3.16,3.16,0,0,1,.6.25c.47.28.82.73,1.28,1a3.81,3.81,0,0,0,2,.48,11.8,11.8,0,0,1,2.06.07,2.41,2.41,0,0,1,1.7,1A2.19,2.19,0,0,1,80.83,21.29Z"/><path class="cls-11" d="M80.83,21.29a4.21,4.21,0,0,1-1.53,1.52.86.86,0,0,0-.31.29.83.83,0,0,0-.06.35,3.85,3.85,0,0,1-.09,1.08,7.65,7.65,0,0,1-.44,1.12,4.23,4.23,0,0,1-.89,1,9.34,9.34,0,0,1-3.54,2,2.09,2.09,0,0,1-.34.08A6.44,6.44,0,0,0,75,26.09a6.54,6.54,0,0,0-.73-4.76A9.08,9.08,0,0,1,72.94,19a3.61,3.61,0,0,1,.34-2.63,3.16,3.16,0,0,1,.6.25c.47.28.82.73,1.28,1a3.81,3.81,0,0,0,2,.48,11.8,11.8,0,0,1,2.06.07,2.41,2.41,0,0,1,1.7,1A2.19,2.19,0,0,1,80.83,21.29Z"/><path class="cls-13" d="M82.05,14.63a12.13,12.13,0,0,1-.24,2.82c-.19.9-.48,1.78-.7,2.67a2.81,2.81,0,0,0-.37-.78,1,1,0,0,0-1-.23,1.07,1.07,0,0,0-.37.24,4.23,4.23,0,0,0-1,2.13c-.42-.07-.73-.44-1.09-.66a1.86,1.86,0,0,0-1.24-.28,4.22,4.22,0,0,1-.62.1.61.61,0,0,1-.54-.25,2.09,2.09,0,0,1-.11-.43c-.16-.54-.82-.77-1.08-1.26s-.08-1.07-.21-1.6a.68.68,0,0,0-.16-.33.57.57,0,0,0-.27-.13s0,0,0,0a.74.74,0,0,0-.33,0,2,2,0,0,0-.54.37,6.72,6.72,0,0,1-1.55,1.1,2.57,2.57,0,0,1-1.85.17,1.8,1.8,0,0,1-.46-.23c-.62-.44-.66-1.63-.53-2.3a6.28,6.28,0,0,1,1-2.28,9,9,0,0,1,3.27-3.29,4.54,4.54,0,0,1,4.47,0,4.12,4.12,0,0,0,1.14.67,9.26,9.26,0,0,0,1.29,0,3.11,3.11,0,0,1,.61.1,3.71,3.71,0,0,1,1.13.55,3,3,0,0,1,1,1.17,4.58,4.58,0,0,1,.34,1.6C82,14.4,82.05,14.51,82.05,14.63Z"/><g class="cls-8"><path class="cls-7" d="M82.05,14.63a12.13,12.13,0,0,1-.24,2.82c-.19.9-.48,1.78-.7,2.67a2.81,2.81,0,0,0-.37-.78,1,1,0,0,0-1-.23,1.07,1.07,0,0,0-.37.24,4.23,4.23,0,0,0-1,2.13c-.42-.07-.73-.44-1.09-.66a1.86,1.86,0,0,0-1.24-.28,4.22,4.22,0,0,1-.62.1.61.61,0,0,1-.54-.25,2.09,2.09,0,0,1-.11-.43c-.16-.54-.82-.77-1.08-1.26s-.08-1.07-.21-1.6a.68.68,0,0,0-.16-.33.57.57,0,0,0-.27-.13,4.36,4.36,0,0,1,1.19-.31A7.79,7.79,0,0,0,76,15.56a8,8,0,0,0,1.69-1.32A7.84,7.84,0,0,0,79.57,11a3.71,3.71,0,0,1,1.13.55,3,3,0,0,1,1,1.17,4.58,4.58,0,0,1,.34,1.6C82,14.4,82.05,14.51,82.05,14.63Z"/></g><polygon class="cls-13" points="77.91 120.05 71.08 116.11 71.12 117.66 77.95 121.59 77.91 120.05"/><polygon class="cls-14" points="77.95 121.59 81.59 119.5 81.56 117.96 77.91 120.05 77.95 121.59"/><polygon class="cls-15" points="81.56 117.97 79.96 118.89 77.91 120.05 75.92 118.91 72.62 117.01 71.08 116.11 74.73 114.03 80.08 117.12 81.56 117.97"/><polygon class="cls-13" points="77.82 119.58 71.96 116.19 72.49 115.88 78.36 119.27 77.82 119.58"/><polygon class="cls-13" points="78.98 118.91 73.12 115.53 73.65 115.22 79.52 118.6 78.98 118.91"/><polygon class="cls-13" points="80.14 118.24 74.28 114.86 74.81 114.55 80.68 117.93 80.14 118.24"/><polygon class="cls-15" points="81.56 117.97 79.96 118.89 75.92 118.91 72.62 117.01 72.67 116.98 80.08 117.12 81.56 117.97"/><polygon class="cls-15" points="67.91 106.39 68.72 105.93 72.93 118.69 72.12 119.15 67.91 106.39"/><polygon class="cls-16" points="72.12 119.15 71.34 118.7 67.12 105.94 67.91 106.39 72.12 119.15"/><polygon class="cls-15" points="67.93 105.48 68.72 105.93 67.91 106.39 67.12 105.94 67.93 105.48"/><polygon class="cls-15" points="72.16 108.86 72.97 108.4 77.18 121.16 76.37 121.63 72.16 108.86"/><polygon class="cls-16" points="76.37 121.63 75.59 121.18 71.37 108.42 72.16 108.86 76.37 121.63"/><polygon class="cls-15" points="72.18 107.95 72.97 108.4 72.16 108.86 71.37 108.42 72.18 107.95"/><path class="cls-17" d="M82.52,129.31v1.75a4.91,4.91,0,0,1-.15,1.25,8.44,8.44,0,0,1-3.62,4.85,15.66,15.66,0,0,1-3.1,1.72A28.66,28.66,0,0,1,58,140a16.66,16.66,0,0,1-1.65-.49l-.32-.11a4.24,4.24,0,0,1-.5-.18,17,17,0,0,1-3.82-2l-.27-.2a8.21,8.21,0,0,1-3.35-4.63h0a5.18,5.18,0,0,1-.14-1.24v-1.49l.52-.89c.93-2.1,3.07-4,6.35-5.44a27,27,0,0,1,10.48-2c5.21,0,10.35,1.33,13.73,3.86a9,9,0,0,1,3,3.59Z"/><path class="cls-18" d="M56,137.25v2.14a4.24,4.24,0,0,1-.5-.18v-2.27l.42.27Z"/><path class="cls-16" d="M82.52,129.46a4.86,4.86,0,0,1-.15,1.25h0a8.42,8.42,0,0,1-3.62,4.84,15.66,15.66,0,0,1-3.1,1.72c-7.51,3.22-18.12,2.47-24-1.66l-.27-.2a10.29,10.29,0,0,1-2.24-2.23,6.67,6.67,0,0,1-1.11-2.4,5.3,5.3,0,0,1-.14-1.24c0-3,2.37-5.9,6.87-7.82a26.78,26.78,0,0,1,10.48-2c.94,0,1.88.05,2.8.13A22,22,0,0,1,79,123.57a10.81,10.81,0,0,1,2,1.94A6.36,6.36,0,0,1,82.52,129.46Z"/><path class="cls-19" d="M76.22,123c-2.69-2-6.79-3.07-10.94-3.07a21.38,21.38,0,0,0-8.35,1.6c-3.59,1.53-5.48,3.87-5.48,6.23a4.6,4.6,0,0,0,.11,1h0a6.62,6.62,0,0,0,2.67,3.69,1.88,1.88,0,0,0,.23.16c4.63,3.29,13.09,3.89,19.07,1.32A12.53,12.53,0,0,0,76,132.58a6.74,6.74,0,0,0,2.89-3.86h0a4.34,4.34,0,0,0,.12-1A6,6,0,0,0,76.22,123Z"/><path class="cls-20" d="M81.05,125.51l-12.77,4.16-2.39-4.76,2.2-5.07A22,22,0,0,1,79,123.57,10.81,10.81,0,0,1,81.05,125.51Z"/><path class="cls-21" d="M70,125.33v2.19h0a2.34,2.34,0,0,1-1.39,2,7.51,7.51,0,0,1-6.8,0,2.39,2.39,0,0,1-1.42-2v-2.1h0l.08,0A2.68,2.68,0,0,1,61.82,124a7.49,7.49,0,0,1,6.79,0,2.82,2.82,0,0,1,1.32,1.4Z"/><path class="cls-19" d="M68.64,127.33a7.51,7.51,0,0,1-6.8,0c-1.88-1.09-1.89-2.84,0-3.92a7.49,7.49,0,0,1,6.79,0C70.5,124.5,70.51,126.25,68.64,127.33Z"/><path class="cls-15" d="M69.85,126.15,67,127l-.91-4,.94-.21a5.71,5.71,0,0,1,1.59.61C69.9,124.15,70.32,125.22,69.85,126.15Z"/><path class="cls-18" d="M63.38,127.92v2.16a6.72,6.72,0,0,1-1.24-.44v-2.16A6.06,6.06,0,0,0,63.38,127.92Z"/><path class="cls-18" d="M61.9,127.35v2.16l-.06,0-.32-.2v-2.16l.32.2Z"/><path class="cls-22" d="M69.43,110.06v14.76h0a2.06,2.06,0,0,1-1.22,1.7,6.6,6.6,0,0,1-5.95,0A2.1,2.1,0,0,1,61,124.77V110.11l.06,0a2.44,2.44,0,0,1,1.16-1.28,6.58,6.58,0,0,1,5.94,0,2.46,2.46,0,0,1,1.15,1.22Z"/><path class="cls-19" d="M68.21,111.81a6.58,6.58,0,0,1-5.94,0c-1.65-1-1.66-2.49,0-3.43a6.55,6.55,0,0,1,5.94,0C69.83,109.33,69.84,110.87,68.21,111.81Z"/><path class="cls-18" d="M63.61,112.32v14.73a6.1,6.1,0,0,1-1.09-.39V111.94A5.39,5.39,0,0,0,63.61,112.32Z"/><path class="cls-18" d="M62.32,111.83v14.72l0,0a1.89,1.89,0,0,1-.28-.17V111.62l.28.18Z"/><path class="cls-23" d="M69.43,118.06v4.28a3.37,3.37,0,0,1-.79.61,7.54,7.54,0,0,1-6.8,0,3.59,3.59,0,0,1-.81-.62V118a3.37,3.37,0,0,1,.79-.61,7.51,7.51,0,0,1,6.8,0A3.59,3.59,0,0,1,69.43,118.06Z"/><polygon class="cls-14" points="38.88 90.17 64.09 75.7 64.04 92.15 38.83 106.63 38.88 90.17"/><polygon class="cls-13" points="38.83 106.63 34.14 103.93 34.19 87.47 38.88 90.17 38.83 106.63"/><polygon class="cls-15" points="59.41 73 64.09 75.7 38.88 90.17 34.19 87.47 59.41 73"/><polygon class="cls-16" points="46.06 108.31 45.25 107.84 41.04 120.6 41.85 121.07 46.06 108.31"/><polygon class="cls-15" points="41.85 121.07 42.63 120.62 46.85 107.86 46.06 108.31 41.85 121.07"/><polygon class="cls-15" points="46.04 107.39 45.25 107.84 46.06 108.31 46.85 107.86 46.04 107.39"/><polygon class="cls-16" points="57.75 114.59 56.94 114.13 51.47 129.99 52.27 130.46 57.75 114.59"/><polygon class="cls-15" points="52.27 130.46 53.06 130.01 58.53 114.14 57.75 114.59 52.27 130.46"/><polygon class="cls-15" points="57.72 113.68 56.94 114.13 57.75 114.59 58.53 114.14 57.72 113.68"/><polygon class="cls-13" points="85.11 78.29 61.01 64.62 57.09 96.18 81.19 109.86 85.11 78.29"/><polygon class="cls-23" points="62.22 90.17 59.28 78.33 58.08 87.8 62.22 90.17"/><polygon class="cls-14" points="81.19 109.86 84.58 107.87 88.5 76.3 85.11 78.29 81.19 109.86"/><polygon class="cls-15" points="64.4 62.63 61.01 64.62 85.11 78.29 88.5 76.3 64.4 62.63"/><polygon class="cls-13" points="50.57 134.27 29.87 122.38 29.92 124.64 50.62 136.52 50.57 134.27"/><polygon class="cls-14" points="50.62 136.52 55.95 133.47 55.9 131.21 50.57 134.27 50.62 136.52"/><polygon class="cls-15" points="55.9 131.21 53.55 132.56 50.57 134.27 47.64 132.59 42.82 129.82 29.87 122.38 35.2 119.33 53.74 129.98 55.9 131.21"/><polygon class="cls-15" points="55.9 131.21 53.55 132.56 47.64 132.59 42.82 129.82 42.9 129.78 53.74 129.98 55.9 131.21"/><polygon class="cls-15" points="29.87 122.38 40.41 122.32 38.44 121.18 32.16 121.07 29.87 122.38"/><polygon class="cls-13" points="38.83 106.64 38.83 99.01 62.86 112.81 62.86 120.44 38.83 106.64"/><polygon class="cls-24" points="62.86 112.81 38.83 99.01 58.08 87.8 82.2 101.65 62.86 112.81"/><polygon class="cls-23" points="38.83 99.01 46.71 99.01 62.22 90.17 58.08 87.8 38.83 99.01"/><path class="cls-25" d="M44.49,127.58c-.73.77-1.84.53-2.72,1a6.51,6.51,0,0,0-2.51,2,7.64,7.64,0,0,1-2.49,2.38,3.5,3.5,0,0,1-2.59.05,2.19,2.19,0,0,1-1.61-2.36,3.17,3.17,0,0,1,.92-1.77,10.83,10.83,0,0,1,1.57-1.28,31.64,31.64,0,0,0,4-3.41,5,5,0,0,0,.5-.64c.15-.2.28-.41.43-.62a2.62,2.62,0,0,1,2.34-.71c.25,0,.5.13.74.16s.42-.13.65-.11a.34.34,0,0,1,.19.09,3.06,3.06,0,0,1,1.11.93,2.84,2.84,0,0,1,.34,1.31A4.06,4.06,0,0,1,44.49,127.58Z"/><path class="cls-26" d="M44.49,127.58c-.73.77-1.84.53-2.72,1a6.51,6.51,0,0,0-2.51,2,7.64,7.64,0,0,1-2.49,2.38,3.5,3.5,0,0,1-2.59.05,5.58,5.58,0,0,0,1.5-.71A8.91,8.91,0,0,0,38,129.8a8.8,8.8,0,0,1,1.6-2c.85-.66,2-.91,2.7-1.75.34-.41.5-1.09.1-1.44a1.67,1.67,0,0,0-.83-.27,4.13,4.13,0,0,1-2-.86c.15-.2.28-.41.43-.62a2.62,2.62,0,0,1,2.34-.71c.25,0,.5.13.74.16s.42-.13.65-.11a.34.34,0,0,1,.19.09,3.06,3.06,0,0,1,1.11.93,2.84,2.84,0,0,1,.34,1.31A4.06,4.06,0,0,1,44.49,127.58Z"/><path class="cls-25" d="M48.78,129.75a12,12,0,0,1-1.29,1c-1.07.84-1.57,2.24-2.59,3.13a5.64,5.64,0,0,1-1.64,1,10.55,10.55,0,0,1-3.62.83,6.36,6.36,0,0,1-1.07,0,3.22,3.22,0,0,1-1.58-.48,1.5,1.5,0,0,1-.66-1.44,2.07,2.07,0,0,1,.49-.86c1.57-1.9,3.83-3.11,5.51-4.93a16.42,16.42,0,0,0,1.26-1.6c.13-.19.26-.38.38-.58a7.23,7.23,0,0,0,.51-.84,2.91,2.91,0,0,1,.45-.83c.68-.66,1.93-.33,2.6.16a4.71,4.71,0,0,1,1.27,1.59,5,5,0,0,1,.63,2A2.68,2.68,0,0,1,48.78,129.75Z"/><path class="cls-26" d="M48.78,129.75a12,12,0,0,1-1.29,1c-1.07.84-1.57,2.24-2.59,3.13a5.64,5.64,0,0,1-1.64,1,10.55,10.55,0,0,1-3.62.83,8.66,8.66,0,0,0,3.22-1.86c1.43-1.33,2.24-3.19,3.49-4.69a3.39,3.39,0,0,0,.46-.66.8.8,0,0,0-.06-.78,1.3,1.3,0,0,0-.7-.35A3.38,3.38,0,0,1,44.11,126l-.14-.29a7.23,7.23,0,0,0,.51-.84,2.91,2.91,0,0,1,.45-.83c.68-.66,1.93-.33,2.6.16a4.71,4.71,0,0,1,1.27,1.59,5,5,0,0,1,.63,2A2.68,2.68,0,0,1,48.78,129.75Z"/><path class="cls-27" d="M61.7,90.72a14,14,0,0,1-1.21,3.19,14.42,14.42,0,0,1-1.62,2.7,14,14,0,0,1-3.36,2.87,33.23,33.23,0,0,1-6.48,3.3,6.58,6.58,0,0,0-4,4,2.91,2.91,0,0,0-.14,1.57A5.17,5.17,0,0,1,45,110c-.06,1.29-.3,2.57-.45,3.86a54.76,54.76,0,0,0,.33,7.89,1,1,0,0,1,0,.35.67.67,0,0,1-.14.28,2.85,2.85,0,0,1-1.52,1l-.11,0a4.3,4.3,0,0,1-1.75.08,4.6,4.6,0,0,1-1.09-.28c-.41-.16-.4-.67-.48-1-.17-.83-1.2-6.88-1.56-9.07-.24-1.48-.49-3-.73-4.42A25.86,25.86,0,0,1,37,104a11.61,11.61,0,0,1,.37-2.76,5.93,5.93,0,0,1,2-2.77,34,34,0,0,1,3.46-2.76c1.36-1,9.36-5.81,12.06-7.12,1.29-.62,2.61-1.18,3.88-1.82a2.08,2.08,0,0,1,2.82,1.14s0,0,0,.08A4.44,4.44,0,0,1,61.7,90.72Z"/><path class="cls-28" d="M61.7,90.72a14,14,0,0,1-1.21,3.19,14.42,14.42,0,0,1-1.62,2.7,14,14,0,0,1-3.36,2.87,33.23,33.23,0,0,1-6.48,3.3,6.58,6.58,0,0,0-4,4,2.91,2.91,0,0,0-.14,1.57A5.17,5.17,0,0,1,45,110c-.06,1.29-.3,2.57-.45,3.86a54.76,54.76,0,0,0,.33,7.89,1,1,0,0,1,0,.35.67.67,0,0,1-.14.28,2.85,2.85,0,0,1-1.52,1l-.11,0c-.15-.78-.35-1.56-.45-2.28-.22-1.5-.42-3-.58-4.54a75.2,75.2,0,0,1-.54-9.13,12.92,12.92,0,0,1,.31-3c.77-2.89,3.65-4.36,5.87-6.08l8-6.2A61.6,61.6,0,0,1,61.61,88,4.44,4.44,0,0,1,61.7,90.72Z"/><path class="cls-27" d="M73.67,97.65c-.72,3.15-3.24,4.69-6,5.82A137.73,137.73,0,0,1,53,108.75c-.69.19-1.21.42-1.35,1.2a8.34,8.34,0,0,0,.14,2.39,15.55,15.55,0,0,1,0,2.16,16,16,0,0,1-.86,4.71c-.27.8-.6,1.56-.87,2.36a24.66,24.66,0,0,0-.69,2.69,3.38,3.38,0,0,1-.81,1.8,2.59,2.59,0,0,1-1.14.52h-.07a3.45,3.45,0,0,1-1.66,0,2.49,2.49,0,0,1-1.15-.7c-.33-.38-.22-.81-.24-1.29,0-1.34-.07-2.68-.09-4-.05-2.69-.05-5.38,0-8.06,0-1.3,0-2.61.08-3.91a7.75,7.75,0,0,1,.58-3.3c.5-1.07,1.65-1.68,2.56-2.37l3.24-2.48a41,41,0,0,0,4.72-4,14.26,14.26,0,0,0,3.34-5.16c.54-1.63.69-3.4,1.45-5,.26.65.49,1.94,1.14,2.32s1.17.65,1.74,1.06a13.09,13.09,0,0,0,5.38,2.23c1.65.28,3.54.57,4.19-1.36a6.94,6.94,0,0,0,.26-2c.15.79.3,1.58.43,2.37.18,1.07.34,2.14.43,3.22,0,.37.06.76.08,1.14A9.62,9.62,0,0,1,73.67,97.65Z"/><path class="cls-28" d="M73.67,97.65c-.72,3.15-3.24,4.69-6,5.82A137.73,137.73,0,0,1,53,108.75c-.69.19-1.21.42-1.35,1.2a8.34,8.34,0,0,0,.14,2.39,15.55,15.55,0,0,1,0,2.16,16,16,0,0,1-.86,4.71c-.27.8-.6,1.56-.87,2.36a24.66,24.66,0,0,0-.69,2.69,3.38,3.38,0,0,1-.81,1.8,2.59,2.59,0,0,1-1.14.52h-.07q.17-6.65.61-13.26a13,13,0,0,1,.8-4.39,10.71,10.71,0,0,1,4.08-4.69c.33-.22.66-.44,1-.64,1.63-1,3.13-2.14,4.8-3,2.75-1.5,5.64-2.66,8.21-4.44a54,54,0,0,0,6.45-5.23c.18,1.07.34,2.14.43,3.22,0,.37.06.76.08,1.14A9.62,9.62,0,0,1,73.67,97.65Z"/><path class="cls-10" d="M60.81,76.64a11.48,11.48,0,0,1-2,2.59,8.3,8.3,0,0,1-2.64,2,2.1,2.1,0,0,1-.3.15,45.29,45.29,0,0,1-5.12,2.19c-.88.31-1.77.59-2.66.84-.45.13-.89.25-1.35.36s-.84.12-1.05.45c-.06.09,0,.24-.09.35a1.39,1.39,0,0,1-.55.55,7.38,7.38,0,0,1-3.63.87,1,1,0,0,1-.6-.09s0,0,0,0a.33.33,0,0,1-.17-.25.5.5,0,0,1,.15-.34,3.85,3.85,0,0,1,.92-.79,1.66,1.66,0,0,0,.52-.42.18.18,0,0,0,0-.13c0-.07-.14-.07-.21,0a2.36,2.36,0,0,0-1.15,1c-.25.39-.45.82-.69,1.23a.33.33,0,0,0-.06.1c-.16.27-.33.5-.51.75l0,0a1.75,1.75,0,0,1-.44.46,1.59,1.59,0,0,1-.74.18.28.28,0,0,1-.18,0,.24.24,0,0,1-.11-.15,1.29,1.29,0,0,1-.07-.58,4.66,4.66,0,0,1,.44-1.75A9.63,9.63,0,0,1,40.06,84c.26-.28.52-.57.77-.87A.58.58,0,0,1,41,83a.42.42,0,0,1,.27,0c.61,0,1.21.08,1.81.07a3.17,3.17,0,0,0,1.23-.19c.66-.31,8.19-5,8.93-5.54a12.26,12.26,0,0,0,2.1-1.84,8.13,8.13,0,0,0,1.11-2.34c0-.12.09-.24.13-.36a27,27,0,0,0,.92-3.31c.15-.68.29-1.38.42-2.07a10.64,10.64,0,0,1,.7-2.54c.28-.6.82-1.49,1.5-1.68s1.15.91,1.26,1.49c.41,2-.24,4-.29,6v.15C61.07,72.78,61.58,74.84,60.81,76.64Z"/><path class="cls-11" d="M38.63,87.73a9.85,9.85,0,0,1,1.61-.65.33.33,0,0,0-.06.1c-.16.27-.33.5-.51.75l0,0A9.94,9.94,0,0,1,38.63,87.73Z"/><path class="cls-11" d="M60.81,76.64a11.48,11.48,0,0,1-2,2.59,8.3,8.3,0,0,1-2.64,2,2.1,2.1,0,0,1-.3.15,45.29,45.29,0,0,1-5.12,2.19c-.88.31-1.77.59-2.66.84-.45.13-.89.25-1.35.36s-.84.12-1.05.45c-.06.09,0,.24-.09.35a1.39,1.39,0,0,1-.55.55,7.38,7.38,0,0,1-3.63.87,1,1,0,0,1-.6-.09,9.75,9.75,0,0,0,3.3-1.48c.52-.41,1-.92,1.46-1.35A12.16,12.16,0,0,1,50.05,82c1.4-.45,2.81-.88,4.23-1.32,1-.31,3.91-1.17,3.23-2.72a1.36,1.36,0,0,0-.21-.32q-.46-.57-1-1.11c-.09-.09-.27-.24-.25-.37.1-.44.75.17.88.28l.48.44c.43.39.7.13.72-.36A5.65,5.65,0,0,0,58,74.62c-.26-.84-.92-1.16-1.4-1.83a27,27,0,0,0,.92-3.31,3,3,0,0,1,2.21.24,4.1,4.1,0,0,1,1.38,1.1C61.07,72.78,61.58,74.84,60.81,76.64Z"/><path class="cls-29" d="M62,65.78c-.31,2.7-1.41,5.31-1.29,8a3.45,3.45,0,0,1-.72.08,4.12,4.12,0,0,1-2.35-.74,3.75,3.75,0,0,1-.92-.9.65.65,0,0,1-.17-.33.92.92,0,0,1,0-.33c.37-2.49.76-5.08,2.13-7.2a3.43,3.43,0,0,1,1.79-1.57l.47.24a1.71,1.71,0,0,1,1,1.15A4.2,4.2,0,0,1,62,65.78Z"/><path class="cls-30" d="M60,73.53a2.06,2.06,0,0,1,0,.35,4.12,4.12,0,0,1-2.35-.74h0c0-.88.16-1.74.2-2.61a14.5,14.5,0,0,1,.54-3.93,12.64,12.64,0,0,1,1.38-2.81,18,18,0,0,0-.59,4,19.89,19.89,0,0,0,.59,4.06A7.66,7.66,0,0,1,60,73.53Z"/><path class="cls-31" d="M79.3,71a3.82,3.82,0,0,1-.39,1.56c-.55,1.06-.85,2.33-1.29,3.44-.16.42-.33.83-.49,1.24-.78,1.94-1.56,3.87-2.22,5.85a30.08,30.08,0,0,0-1.18,4.85c-.21,1.39.14,2.93-1.25,3.71a8.77,8.77,0,0,1-4,1.07H68a15.79,15.79,0,0,1-4.61-.81,10.63,10.63,0,0,1-4.68-2.66c-1-1.06-.4-2.67-.25-4a37.9,37.9,0,0,0,.3-8,72.86,72.86,0,0,1-.09-9.69,8.83,8.83,0,0,1,.67-3.5,3.75,3.75,0,0,1,2.09-1.9c.62-.22,1.31-.18,1.94-.42a14,14,0,0,1,2.58-1.19c.39-.08.79-.07,1.16-.17a8,8,0,0,0,1-.35s.76-.43.63-.51C72.18,61.7,79,68.53,79.33,69.1a.42.42,0,0,1,.08.22.45.45,0,0,1-.07.18C79.12,69.93,79.32,70.51,79.3,71Z"/><path class="cls-30" d="M77.13,77.21c-.78,1.94-1.56,3.87-2.22,5.85a30.08,30.08,0,0,0-1.18,4.85c-.21,1.39.14,2.93-1.25,3.71a8.77,8.77,0,0,1-4,1.07,72.91,72.91,0,0,1,2.73-16.43,23.75,23.75,0,0,1,1.23-3.62c.51-1.15,2.35-4.77,3.9-2.8.71.91.64,2.45.71,3.55C77.11,74.66,77.13,75.94,77.13,77.21Z"/><path class="cls-10" d="M71.82,64.16a8.93,8.93,0,0,1-1.95,2.49,4.3,4.3,0,0,1-1.13.68,2.06,2.06,0,0,1-1.27.14,1.06,1.06,0,0,1-.79-.92c0-.43,0-.72-.44-.83-.26,0-.53,0-.79-.09a2.23,2.23,0,0,1-1.4-1.48,4.68,4.68,0,0,1,0-2.32,6.85,6.85,0,0,1,1.66-3.44c.37-.38.81-.69,1.19-1l.2-.21a3.2,3.2,0,0,0,.36-.52,1.77,1.77,0,0,0,.23-.63c.08.11.17.24.24.36,1.21,1.74,1.88,3.86,3.43,5.29a2.51,2.51,0,0,1,.81,1A2,2,0,0,1,71.82,64.16Z"/><path class="cls-11" d="M71.82,64.16a8.93,8.93,0,0,1-1.95,2.49.5.5,0,0,0,0-.12,5.77,5.77,0,0,0,0-2.07,8.8,8.8,0,0,0-.46-1.57,8.62,8.62,0,0,0-1.55-2.45,3.39,3.39,0,0,1-1.12-2A2.58,2.58,0,0,1,67,57.28a1.09,1.09,0,0,1,.08-.15,1.86,1.86,0,0,1,.36-.52l.09-.08a1.23,1.23,0,0,1,.38-.19c1.21,1.74,1.88,3.86,3.43,5.29a2.51,2.51,0,0,1,.81,1A2,2,0,0,1,71.82,64.16Z"/><path class="cls-32" d="M62.62,64.26a12.16,12.16,0,0,1-.29,2.18c0,.14-.06.26-.08.39-.43,2-.76,4.11-1,6.17-.14,1.11-.25,2.21-.36,3.32a10.16,10.16,0,0,1-.32,2.12,2.17,2.17,0,0,1-1.14,1.32,87.69,87.69,0,0,1-11.24,5.68,2.94,2.94,0,0,1-1.86.32.55.55,0,0,1-.35-.4A1.87,1.87,0,0,1,46,85a.66.66,0,0,0,0-.28,2.2,2.2,0,0,0-.22-.67,1.94,1.94,0,0,0-1-.88,6.54,6.54,0,0,0-.73-.19l-.14,0a.31.31,0,0,1-.07-.28.81.81,0,0,1,.25-.36,5.62,5.62,0,0,1,1.35-.86,29.61,29.61,0,0,0,6.17-4.23l0,0a16.54,16.54,0,0,0,1.8-1.85A9.68,9.68,0,0,0,55,72.49c.27-.77.46-1.56.72-2.33a18.54,18.54,0,0,1,2.63-6.46,5.22,5.22,0,0,1,3.14-2.12.47.47,0,0,1,.37,0,.56.56,0,0,1,.18.27A6.28,6.28,0,0,1,62.62,64.26Z"/><path class="cls-33" d="M57.75,68.18a12.84,12.84,0,0,1,2.38-4.63c-.08.09.06.62.09.74a1.18,1.18,0,0,0,.41.67,2.77,2.77,0,0,1,.88,1.47,7,7,0,0,1,.29,2.7c-.09,1.22-.49,2.4-.63,3.62s-.21,2.38-.31,3.57a10.16,10.16,0,0,1-.32,2.12,2.17,2.17,0,0,1-1.14,1.32,87.69,87.69,0,0,1-11.24,5.68,2.94,2.94,0,0,1-1.86.32.55.55,0,0,1-.35-.4A1.87,1.87,0,0,1,46,85a28.14,28.14,0,0,0,3.32-1.71,15.77,15.77,0,0,0,5.9-5.93,19.92,19.92,0,0,0,1.47-4c.36-1.3.47-2.65.8-4C57.53,68.93,57.64,68.56,57.75,68.18Z"/><path class="cls-32" d="M82.19,89.66c-1.21,4.33-4.68,6.7-8.32,8.8-1.22.71-2.46,1.39-3.63,2.1C68,101.9,66,103.45,63.9,105a6.66,6.66,0,0,0-2.31,3.16,20.71,20.71,0,0,0-1.35,7.67,23.59,23.59,0,0,1-4.43.59,26.73,26.73,0,0,1-18.2-6,4.64,4.64,0,0,1-1.11-1.19,4.52,4.52,0,0,1-.46-1.43c0-.23-.08-.45-.11-.69a14.83,14.83,0,0,1,0-4.26,7.89,7.89,0,0,1,1.14-3.2,16.49,16.49,0,0,1,1.73-2.26,11.82,11.82,0,0,1,2.32-1.78,20.83,20.83,0,0,1,2.92-1.64,68.69,68.69,0,0,0,6.39-3.28A27,27,0,0,0,55.1,87a7.53,7.53,0,0,0,2.31-4.15,29.39,29.39,0,0,0,.46-5.38c.07-2.66.14-5.33.2-8a14,14,0,0,1,.48-3.93,5.45,5.45,0,0,1,2.67-3.29c1.08-.43,3.1-.18,3.64,1,.36.77.21,1.56,1,2.11a10.23,10.23,0,0,0,1.75,1c.86.41,1.64-.53,2-1.21a7.92,7.92,0,0,0,.8-2.11,3.18,3.18,0,0,1,.3-.83c.43-.73,1-.4,1.61-.08s1.3.8,2,1.16a15.48,15.48,0,0,1,5.48,4.44,15.49,15.49,0,0,1,2.13,4.85A37.15,37.15,0,0,1,83,80.9,27.81,27.81,0,0,1,82.19,89.66Z"/><path class="cls-33" d="M75.46,67.61s.76,1.48.82,1.64c.22.64.4,1.31.63,2a11.56,11.56,0,0,1,.31,1.66,17,17,0,0,1,.29,3.57,46.92,46.92,0,0,1-.9,7.09c-.88,5-1.65,10-2.74,14.94-1.22.71-2.46,1.39-3.63,2.1C68,101.9,66,103.45,63.9,105a6.66,6.66,0,0,0-2.31,3.16,20.71,20.71,0,0,0-1.35,7.67,23.59,23.59,0,0,1-4.43.59,23.61,23.61,0,0,1,.11-9.1c1.85-7.87,8.86-13.43,12.34-20.75a26,26,0,0,0,1.32-3.4c.35-1.15.52-2.34.84-3.49.65-2.34.33-4.86,1-7.2.05-.17.1-.33.16-.5a9.09,9.09,0,0,1,2.46-3.65A2.37,2.37,0,0,1,75.46,67.61Z"/><path class="cls-27" d="M67,65.34a3.4,3.4,0,0,0,.91-.55,7.57,7.57,0,0,0,1.89-1.94,3.52,3.52,0,0,0,.51-2.61A8.66,8.66,0,0,0,72,61.94a1.33,1.33,0,0,1,.29,1.2,6.12,6.12,0,0,1-1.86,3.32A4.19,4.19,0,0,1,69,67.4c-.63.22-1.71.5-2.22-.1a2.57,2.57,0,0,1-.38-.86,2.23,2.23,0,0,0-.38-.79c-.13-.11-.32-.12-.44-.25a1.17,1.17,0,0,1,.49,0A1.69,1.69,0,0,0,67,65.34Z"/><path class="cls-10" d="M68.22,58.88a1.5,1.5,0,0,0,0,.94,2.31,2.31,0,0,1-.37,1.52c-.22.35-.54.67-.54,1.07a3,3,0,0,0,.22.81,1.82,1.82,0,0,1-.33,1.5l-.05.07a5.08,5.08,0,0,1-1.24,1.12l-.38.28,0,0h0a4.83,4.83,0,0,1-1.29.68,2.07,2.07,0,0,1-1.89-.25c-.49-.4-.75-1.1-1.35-1.29-.31-.11-.69,0-1-.23-.43-.3-.32-.95-.27-1.47a1.74,1.74,0,0,0-.46-1.49,6.41,6.41,0,0,0-.77-.44,3,3,0,0,1-1.12-1.68,7.58,7.58,0,0,1-.54-4,6,6,0,0,1,1.81-3.63,7,7,0,0,1,6.16-1.66l.27.06a5,5,0,0,1,1.84.84,5.23,5.23,0,0,1,1.41,1.82A7.31,7.31,0,0,1,69,57.09a2.15,2.15,0,0,1-.5,1.48A2.13,2.13,0,0,0,68.22,58.88Z"/><path class="cls-11" d="M68.22,58.88a1.5,1.5,0,0,0,0,.94,2.31,2.31,0,0,1-.37,1.52c-.22.35-.54.67-.54,1.07a3,3,0,0,0,.22.81,1.82,1.82,0,0,1-.33,1.5,7.9,7.9,0,0,0-1.67,1.47l-.1.11a.35.35,0,0,0,.05-.08h0A4.75,4.75,0,0,0,66,63.49c-.23-1.93-1.64-3.68-1.42-5.61A7.77,7.77,0,0,1,65.08,56a8.23,8.23,0,0,0,.69-2.79,3.61,3.61,0,0,0-.43-1.88c-.09-.17-.21-.33-.32-.5a5,5,0,0,1,1.84.84,5.23,5.23,0,0,1,1.41,1.82A7.31,7.31,0,0,1,69,57.09a2.15,2.15,0,0,1-.5,1.48A2.13,2.13,0,0,0,68.22,58.88Z"/><path class="cls-34" d="M57.08,47.6a14.55,14.55,0,0,0-3.95,2.87,13.35,13.35,0,0,0-2.58,2.88,1.54,1.54,0,0,0-.26.61,1.43,1.43,0,0,0,.09.83,1.14,1.14,0,0,0,.44.52h0l.05.14.25-.08h0c.2,0,.38-.33.52-.51q.78-1.06,1.62-2A20,20,0,0,1,55,51c.62-.53,1.23-1.1,1.83-1.67l.59-.55a3.17,3.17,0,0,0,.36-.37c.15-.2.39-.55.19-.79a.5.5,0,0,0-.29-.16A1.08,1.08,0,0,0,57.08,47.6Z"/><path class="cls-35" d="M56,48.44l0-.3A.91.91,0,0,1,56,48a.2.2,0,0,1,0-.11.09.09,0,0,1,.06-.07.22.22,0,0,1,.14,0l.09.09a4.92,4.92,0,0,0,1.19.83c.33.17,7.32,3.3,9.71,4.26.08,0,.16.08.16.13h0l0,.29c0-.05-.08-.09-.16-.12-2.39-1-9.38-4.1-9.71-4.26a4.94,4.94,0,0,1-1.19-.84s-.12-.14-.23-.11-.07.11-.08.17A1.09,1.09,0,0,0,56,48.44Z"/><path class="cls-35" d="M56,48.51v-.07a1.09,1.09,0,0,1,0-.18c0-.06,0-.16.08-.17s.19.07.23.11a4.94,4.94,0,0,0,1.19.84c.33.16,7.32,3.29,9.71,4.26.08,0,.16.07.16.12a.08.08,0,0,1,0,0,.35.35,0,0,1-.15.08l-.81.29a1.63,1.63,0,0,1-.62.12,1.18,1.18,0,0,1-.38-.1,36.25,36.25,0,0,1-4-2,2.29,2.29,0,0,1-.46-.3,3.17,3.17,0,0,1-.27-.47,2.62,2.62,0,0,0-1.41-.88c-.62-.21-1.3-.35-1.93-.54a2.63,2.63,0,0,1-.6-.25l-.2-.13a1.65,1.65,0,0,1-.36-.34A1,1,0,0,1,56,48.51Z"/><path class="cls-15" d="M56,48.46l0-.32A.91.91,0,0,1,56,48a.2.2,0,0,1,0-.11l0,.62a.08.08,0,0,1,0,0Z"/><path class="cls-36" d="M50.1,54.88A1.55,1.55,0,0,1,50,54a1.74,1.74,0,0,1,.27-.6,13.09,13.09,0,0,1,2.58-2.88,14.8,14.8,0,0,1,3.95-2.88,1.12,1.12,0,0,1,.6-.1.47.47,0,0,1,.29.16c.21.24,0,.59-.19.79a2.47,2.47,0,0,1-.35.37l-.59.55c-.6.57-1.21,1.14-1.83,1.67A18.72,18.72,0,0,0,53,52.91c-.56.65-1.1,1.33-1.63,2-.14.19-.33.5-.55.52S50.24,55.21,50.1,54.88Z"/><path class="cls-37" d="M53.66,51.74A9.29,9.29,0,0,0,52,53.8a3.44,3.44,0,0,1-.81,1.07c-.21.15-.5.3-.49.57h0a.6.6,0,0,1-.24-.14.93.93,0,0,1,.16-.35,5.1,5.1,0,0,1,.47-.46c.14-.15.24-.34.38-.51s.31-.29.45-.45.4-.62.62-.92A2.52,2.52,0,0,1,53.66,51.74Z"/><path class="cls-38" d="M57.77,47.9a.58.58,0,0,1-.08.35,3.22,3.22,0,0,0-.56.41l-1.89,1.59a3.64,3.64,0,0,0-.46.42c-.3.35-.54.84-1,.91.28-.34.58-.67.88-1a7.31,7.31,0,0,1,1.07-1c.15-.1.31-.2.45-.31a4.89,4.89,0,0,0,.46-.45A6.19,6.19,0,0,1,57.77,47.9Z"/><path class="cls-39" d="M57.66,47.7l0,0,0,0a18.2,18.2,0,0,0-3.2,2.6c-.23.25-.45.51-.69.75s-.55.53-.83.8a19.37,19.37,0,0,0-2.72,3.26L50.18,55A10.87,10.87,0,0,1,51,53.81c.16-.24.3-.5.48-.74a5.77,5.77,0,0,1,.62-.69A25.89,25.89,0,0,1,57.66,47.7Z"/><path class="cls-37" d="M57.19,47.57a.5.5,0,0,1,.21,0h0a17,17,0,0,0-3.59,2.81A23.58,23.58,0,0,0,50,54.71s0,0,0-.07a9.39,9.39,0,0,1,1.34-1.93c.21-.24.41-.49.61-.73a11,11,0,0,1,.92-1c.4-.38.84-.69,1.25-1s.56-.54.86-.8A15.16,15.16,0,0,1,56.52,48l.36-.24Z"/><path class="cls-39" d="M56,48.1v0a4.14,4.14,0,0,1-.86.65,6.2,6.2,0,0,0-.62.53l-2,1.81a6,6,0,0,0-.67.66c-.29.32-.52.69-.8,1s-.62.65-.93,1a1.74,1.74,0,0,1,.18-.33,13.09,13.09,0,0,1,2.58-2.88A18.77,18.77,0,0,1,56,48.1Z"/><path class="cls-40" d="M63.44,66.57a2.09,2.09,0,0,0,.72-.49,9,9,0,0,0,1.7-2.31,3.29,3.29,0,0,0,.41-1.2,3.94,3.94,0,0,0-.5-1.87c0-.1-.08-.26,0-.31s.2,0,.27.13a9,9,0,0,1,1.07,1.54,3.15,3.15,0,0,1,.38,1.82A3.37,3.37,0,0,1,67,65.27a8,8,0,0,1-2,2,2.57,2.57,0,0,1-.56.31c-.93.31-1.91-.46-2.46-1.14a.45.45,0,0,1-.12-.29c0,.06.31.22.36.25a2.23,2.23,0,0,0,.43.16A1.44,1.44,0,0,0,63.44,66.57Z"/><polygon class="cls-41" points="82.2 101.65 81.19 109.85 62.86 120.44 62.86 112.81 82.2 101.65"/><polygon class="cls-14" points="67.6 106.67 92.77 92.23 92.72 108.68 67.55 123.13 67.6 106.67"/><polygon class="cls-24" points="92.75 100.36 92.74 100.66 67.57 115.2 67.58 114.9 92.75 100.36"/><polygon class="cls-24" points="74.15 102.92 74.15 119.34 73.94 119.47 73.94 103.04 74.15 102.92"/><polygon class="cls-24" points="80.67 99.18 80.67 115.6 80.45 115.72 80.45 99.3 80.67 99.18"/><polygon class="cls-24" points="87.19 95.43 87.19 111.86 86.97 111.98 86.97 95.56 87.19 95.43"/><polygon class="cls-13" points="67.55 123.13 62.86 120.43 62.91 103.97 67.6 106.67 67.55 123.13"/><polygon class="cls-15" points="88.08 89.53 92.77 92.23 67.6 106.67 62.91 103.97 88.08 89.53"/><polygon class="cls-23" points="83.36 92.23 92.77 92.23 88.08 89.53 83.36 92.23"/><polygon class="cls-13" points="67.94 114.23 73.58 103.71 67.95 106.93 67.94 114.23"/><polygon class="cls-13" points="74.62 110.46 80.26 99.94 74.63 103.16 74.62 110.46"/><polygon class="cls-13" points="81.11 106.81 86.75 96.29 81.12 99.51 81.11 106.81"/><polygon class="cls-13" points="87.6 102.92 92.42 92.87 87.61 95.62 87.6 102.92"/><polygon class="cls-13" points="67.94 122.71 73.58 112.19 67.95 115.42 67.94 122.71"/><polygon class="cls-13" points="74.62 118.94 80.26 108.42 74.63 111.64 74.62 118.94"/><polygon class="cls-13" points="81.11 115.29 86.75 104.77 81.12 107.99 81.11 115.29"/><polygon class="cls-13" points="87.6 111.4 92.42 101.35 87.61 104.1 87.6 111.4"/><path class="cls-10" d="M81.53,90.9c-.68.58-1.36,1.16-2,1.73l-.36.29c-1.45,1.21-6,4.57-6.83,5.08a7.73,7.73,0,0,0-1.16.72,7.41,7.41,0,0,0-.56.89,3.41,3.41,0,0,1-.46.47,10.11,10.11,0,0,1-1,.77c-.34.24-.71.45-1,.71a6.55,6.55,0,0,0-1.44,2,4.5,4.5,0,0,1-.62.94,1.56,1.56,0,0,1-.62.39,1,1,0,0,1-.39,0,.76.76,0,0,1-.48.56,1.07,1.07,0,0,1-.75,0,.35.35,0,0,0-.2,0,.75.75,0,0,1-.12.07.16.16,0,0,1-.15,0c-.32-.16-.29-.62-.5-.89-.08-.11-.18-.19-.25-.28a1.17,1.17,0,0,1-.13-.74l.09-1c0-.16.21-.73-.07-.74l-.22,0a.39.39,0,0,1-.39-.38.79.79,0,0,1,.24-.55c.13-.14.3-.26.45-.41a3.43,3.43,0,0,0,.64-1.28,2.58,2.58,0,0,1,.74-1,4.53,4.53,0,0,1,1.8-.69,7.31,7.31,0,0,0,1.81-.79c1.32-.81,8.07-7.51,8.57-8.15.25-.31.52-.62.75-1,.52-.73.11-1.74-.08-2.51-.23-1-.48-1.94-.74-2.89l0-.2c-.2-.75-.41-1.49-.62-2.23-.31-1.12-.64-2.23-1-3.34-.54-1.84-1.25-4.1-.14-5.86a6,6,0,0,1,3-2.47,1.3,1.3,0,0,1,.93,0c1.4.62,1.79,2.87,2.14,4.18a42.29,42.29,0,0,1,1.4,6.67c0,.14,0,.26,0,.39.23,1.91.44,3.83.66,5.74C82.62,86.94,83.09,89.57,81.53,90.9Z"/><path class="cls-11" d="M81.53,90.9c-.68.58-1.36,1.16-2,1.73l-.36.29c-1.45,1.21-6,4.57-6.83,5.08a7.73,7.73,0,0,0-1.16.72,7.41,7.41,0,0,0-.56.89,3.41,3.41,0,0,1-.46.47,10.11,10.11,0,0,1-1,.77c-.34.24-.71.45-1,.71a6.55,6.55,0,0,0-1.44,2,4.5,4.5,0,0,1-.62.94,1.56,1.56,0,0,1-.62.39,5.34,5.34,0,0,1,.63-2.33,10.48,10.48,0,0,1,2.65-3.06c3.64-3.07,8.16-5.11,11.25-8.74.66-.76.92-1.9-.28-2.28a6.47,6.47,0,0,1-1.23-.37.51.51,0,0,1-.19-.17.19.19,0,0,1,0-.23.11.11,0,0,1,.09,0,3.94,3.94,0,0,1,1.14,0,2.45,2.45,0,0,0,1.11-.1c.91-.35.73-1.26.64-2-.11-1-.26-1.93-.45-2.9a1,1,0,0,0-.15-.41c-.28-.36-.84-.17-1.26,0a4.74,4.74,0,0,1-2.86.15,3.69,3.69,0,0,1-.57-.22c-.2-.75-.41-1.49-.62-2.23a2.17,2.17,0,0,1,1-.5,10.18,10.18,0,0,1,1.47-.18,7.69,7.69,0,0,0,1.27-.24,4.08,4.08,0,0,1,.83-.17A2.39,2.39,0,0,1,81,79a3.21,3.21,0,0,1,.77.48c.23,1.91.44,3.83.66,5.74C82.62,86.94,83.09,89.57,81.53,90.9Z"/><path class="cls-29" d="M82.49,78.63a.88.88,0,0,1,0,.36.83.83,0,0,1-.26.36,10.07,10.07,0,0,1-1.13.92l-.41.27a6.77,6.77,0,0,1-4.74,1c-.89-.17-1.12-1.32-1.38-2a25.35,25.35,0,0,1-.92-3.08,11.86,11.86,0,0,1-.17-4.78,8.06,8.06,0,0,1,.51-1.6,6.06,6.06,0,0,1,.58-1,4.54,4.54,0,0,1,1.61-1.32,1.74,1.74,0,0,1,1.06-.17,4.3,4.3,0,0,1,2.39,1.46,9.5,9.5,0,0,1,1.61,3.17A24.51,24.51,0,0,1,82.49,78.63Z"/><path class="cls-30" d="M82.49,78.63a.88.88,0,0,1,0,.36.83.83,0,0,1-.26.36,10.07,10.07,0,0,1-1.13.92,30.09,30.09,0,0,0-1.76-8.44,9.78,9.78,0,0,0-1.26-2.55,4.18,4.18,0,0,0-1.9-1.49,1.74,1.74,0,0,1,1.06-.17,4.3,4.3,0,0,1,2.39,1.46,9.5,9.5,0,0,1,1.61,3.17A24.51,24.51,0,0,1,82.49,78.63Z"/><path class="cls-32" d="M83.57,89.94c-.52,2.35-2.49,4.09-4.46,5.47-.3.22-.62.43-.93.64-1.06.7-2.14,1.35-3.25,2a6.85,6.85,0,0,1-3.27,1.15c-.34,0-.43-.27-.28-.53a1,1,0,0,0,.07-.78,3,3,0,0,0-.32-.74,2.78,2.78,0,0,0-1.3-1,2.05,2.05,0,0,0-1.54.12l-.14.08a.72.72,0,0,1-.25.07h-.05s0,0,0,0c-.21-.46.14-1,.39-1.34s.6-.85.94-1.25c.8-.94,1.63-1.85,2.42-2.79.62-.73,1.21-1.48,1.76-2.27a7.1,7.1,0,0,0,1-3.67,15.31,15.31,0,0,0-.95-5.23,25.67,25.67,0,0,1-1.09-5.42,8.51,8.51,0,0,1,1-5.36,4.63,4.63,0,0,1,1.39-1.43,4.06,4.06,0,0,1,1.68-.61,4.18,4.18,0,0,1,1,0,4.58,4.58,0,0,1,3.08,2.14,9.21,9.21,0,0,1,1.59,3.52c.48,2.41.87,4.85,1.16,7.28s.34,4.73.47,7.1A10.92,10.92,0,0,1,83.57,89.94Z"/><path class="cls-33" d="M83.57,89.94c-.52,2.35-2.49,4.09-4.46,5.47-.3.22-.62.43-.93.64-1.06.7-2.14,1.35-3.25,2a6.85,6.85,0,0,1-3.27,1.15c-.34,0-.43-.27-.28-.53a1,1,0,0,0,.07-.78c1.26-.75,2.59-1.41,3.81-2.23a34.51,34.51,0,0,0,3.46-2.81A5.68,5.68,0,0,0,80,91.36a1.94,1.94,0,0,0,.1-1.89A3,3,0,0,0,78,88.38c-.53-.11-2-.33-1.25-1.15s2.56-.07,3.62-.59c1.52-.74,1.4-2.74,1.44-4.18a25.4,25.4,0,0,0-.67-5.89,26.71,26.71,0,0,0-1.4-4.7,13.45,13.45,0,0,0-2.83-4.4l-.54-.54a4.18,4.18,0,0,1,1,0,4.58,4.58,0,0,1,3.08,2.14,9.21,9.21,0,0,1,1.59,3.52c.48,2.41.87,4.85,1.16,7.28s.34,4.73.47,7.1A10.92,10.92,0,0,1,83.57,89.94Z"/><path class="cls-42" d="M69.05,59.87a6.47,6.47,0,0,1-.68,1.4,5.11,5.11,0,0,1-.87,1.2c.28-.66.36-2.22-.74-2a1.4,1.4,0,0,0-.83.5,9.08,9.08,0,0,0-.57.81,3.86,3.86,0,0,1-.55.66.31.31,0,0,1-.15.1.24.24,0,0,1-.24-.12.88.88,0,0,1-.06-.28c0-.49,0-1,0-1.51a2.52,2.52,0,0,0-.64-1.06c-.44-.5-1.08-.93-1.12-1.59a4.86,4.86,0,0,1,.14-.93.7.7,0,0,0-.41-.78c-.18,0-.41,0-.55-.11s-.07-.38,0-.56.3-.59.44-.88.2-.47,0-.63A.3.3,0,0,0,62,54a.16.16,0,0,0-.1,0,3.85,3.85,0,0,0-1.18.29,5,5,0,0,1-2.13.22,3.18,3.18,0,0,1-1.09-.27A1.14,1.14,0,0,1,57,52.91a2,2,0,0,1,.92-1.36,8.45,8.45,0,0,1,5.48-1.36,6.54,6.54,0,0,1,2.58.64,8,8,0,0,1,2.29,1.65l.11.11a5.48,5.48,0,0,1,1.34,2.62A9.09,9.09,0,0,1,69.05,59.87Z"/><path class="cls-43" d="M69.05,59.87a6.47,6.47,0,0,1-.68,1.4,5.11,5.11,0,0,1-.87,1.2c.28-.66.36-2.22-.74-2a1.4,1.4,0,0,0-.83.5,9.08,9.08,0,0,0-.57.81,3.86,3.86,0,0,1-.55.66.31.31,0,0,1-.15.1.24.24,0,0,1-.24-.12.88.88,0,0,1-.06-.28c0-.49,0-1,0-1.51a2.52,2.52,0,0,0-.64-1.06c-.44-.5-1.08-.93-1.12-1.59a4.86,4.86,0,0,1,.14-.93.7.7,0,0,0-.41-.78c-.18,0-.41,0-.55-.11s-.07-.38,0-.56.3-.59.44-.88.2-.47,0-.63A.3.3,0,0,0,62,54a1.08,1.08,0,0,1,.28-.05,9,9,0,0,1,1.25.2,7.26,7.26,0,0,0,1.4,0,6,6,0,0,0,3.32-1.59l.11.11a5.48,5.48,0,0,1,1.34,2.62A9.09,9.09,0,0,1,69.05,59.87Z"/><path class="cls-19" d="M56,48.2v-.07A1.09,1.09,0,0,1,56,48c0-.06,0-.16.08-.17s.19.07.23.11a4.94,4.94,0,0,0,1.19.84c.33.16,7.32,3.29,9.71,4.26.08,0,.16.07.16.12a.08.08,0,0,1,0,0,.35.35,0,0,1-.15.08l-.81.29a1.63,1.63,0,0,1-.62.12,1.18,1.18,0,0,1-.38-.1,36.25,36.25,0,0,1-4-2,2,2,0,0,1-.46-.31,2.64,2.64,0,0,1-.27-.46,2.62,2.62,0,0,0-1.41-.88c-.62-.21-1.3-.35-1.93-.54a2.63,2.63,0,0,1-.6-.25l-.2-.13a1.94,1.94,0,0,1-.36-.34A1,1,0,0,1,56,48.2Z"/><path class="cls-10" d="M96.48,50a3.11,3.11,0,0,1-2.1,2.08c-.58.25-1.18.48-1.78.69a36.11,36.11,0,0,1-5.39,1.47c-.35.07-.7.12-1.06.17l-.56.09-1.6.21h0c-.78.08-1.55.15-2.33.19-.94,0-1.87.06-2.81,0-.21,0-.44,0-.65,0a1.76,1.76,0,0,0-.64.15,5.2,5.2,0,0,1-1,.48c-1.26.39-2.66-.2-3.92.15a17.3,17.3,0,0,1-3.07.79,1.67,1.67,0,0,1-.5,0,.76.76,0,0,1-.16,0,.61.61,0,0,1-.43-.46.56.56,0,0,1-.61,0,.59.59,0,0,1-.29-.54A1.09,1.09,0,0,1,67,55.3a.55.55,0,0,1-.19-.52.76.76,0,0,1,.26-.4c.3-.31.61-.62.94-.91a.42.42,0,0,1-.35-.35.82.82,0,0,1,.11-.51,3.46,3.46,0,0,1,1.74-1.37,5.42,5.42,0,0,1,2.25-.69,5,5,0,0,1,1.09.12c1.07.2,2.13.47,3.21.61A15.87,15.87,0,0,0,82,50.51,47.12,47.12,0,0,0,87.39,49a20.34,20.34,0,0,0,2-.85c.38-.17.85-.38.87-.87a5.13,5.13,0,0,0-.6-1.54A40.72,40.72,0,0,1,88.18,41c-.18-.67-.35-1.35-.53-2-.08-.28-.14-.6-.21-.91a4.28,4.28,0,0,0-.27-.81c-.17-.38-.56-.6-.79-1a2.48,2.48,0,0,1-.33-1.1,9.36,9.36,0,0,1,.56-4.06,5.36,5.36,0,0,1,1.21-2,2,2,0,0,1,1.52-.72,3.06,3.06,0,0,1,1.62.67,7.18,7.18,0,0,1,2.15,2.84,21.4,21.4,0,0,1,1.33,4.77l.36,1.94c.38,2,1,3.87,1.45,5.84.11.58.23,1.14.32,1.72A8.61,8.61,0,0,1,96.48,50Z"/><path class="cls-11" d="M96.48,50a3.11,3.11,0,0,1-2.1,2.08c-.58.25-1.18.48-1.78.69a36.11,36.11,0,0,1-5.39,1.47c-.35.07-.7.12-1.06.17l-.56.09-1.6.21h0c-.78.08-1.55.15-2.33.19-.94,0-1.87.06-2.81,0-.21,0-.44,0-.65,0a1.76,1.76,0,0,0-.64.15,5.2,5.2,0,0,1-1,.48c-1.26.39-2.66-.2-3.92.15a17.3,17.3,0,0,1-3.07.79,1.67,1.67,0,0,1-.5,0c.65-.25,1.3-.53,1.94-.82s1.08-.52,1.61-.79a14.35,14.35,0,0,1,3.26-1,21.81,21.81,0,0,1,5.7-.33A22.25,22.25,0,0,0,93.29,50.9a1.76,1.76,0,0,0,.94-2,1.4,1.4,0,0,0-.46-.85c-.52-.41-1.3-.24-1.9-.52-.09,0-.19-.12-.16-.22s.05-.09.1-.11A1.74,1.74,0,0,1,93,47.06a2.56,2.56,0,0,0,1.23,0c.94-.32.57-1.45.49-2.15a20.36,20.36,0,0,0-.81-3.7,1,1,0,0,0-.44-.66,1.09,1.09,0,0,0-.84.08,8.51,8.51,0,0,1-4.47.34c-.18-.67-.35-1.35-.53-2-.08-.28-.14-.6-.21-.91A3.47,3.47,0,0,1,89,36.65a6.14,6.14,0,0,1,2.75-.49,7.53,7.53,0,0,1,2.74.51l.36,1.94c.38,2,1,3.87,1.45,5.84.11.58.23,1.14.32,1.72A8.61,8.61,0,0,1,96.48,50Z"/><path class="cls-12" d="M94.75,38.77a5.56,5.56,0,0,1-1.18.93,4.66,4.66,0,0,1-.94.49,6.77,6.77,0,0,1-1.19.34,8.28,8.28,0,0,1-1.72.16,14.33,14.33,0,0,1-1.47-.06,4.39,4.39,0,0,1-1.33-.14c-.25-.17-.35-1-.43-1.32-.14-.49-.28-1-.4-1.48a18.65,18.65,0,0,1-.49-3,10.09,10.09,0,0,1,.25-3.19,5.45,5.45,0,0,1,.74-1.86,3.51,3.51,0,0,1,1.55-1.21,2.56,2.56,0,0,1,.63-.2c1.66-.29,3.27,1.18,4,2.52a13.41,13.41,0,0,1,1.25,3.26c.37,1.29.65,2.58,1.07,3.84C95.28,38.29,95,38.47,94.75,38.77Z"/><path class="cls-9" d="M94.75,38.77a5.56,5.56,0,0,1-1.18.93,26.49,26.49,0,0,0-3.33-9.35,6.14,6.14,0,0,0-1-1.26,5.17,5.17,0,0,0-1.09-.62,2.56,2.56,0,0,1,.63-.2c1.66-.29,3.27,1.18,4,2.52a13.41,13.41,0,0,1,1.25,3.26c.37,1.29.65,2.58,1.07,3.84C95.28,38.29,95,38.47,94.75,38.77Z"/><path class="cls-10" d="M70.32,25.32a3.89,3.89,0,0,0-1,1.36h0a5.38,5.38,0,0,0-.31.81,7.26,7.26,0,0,0-.24,1.55,10.75,10.75,0,0,0,0,1.39c0,.16,0,.31,0,.46.07.77.18,1.52.32,2.28-.38.27-.84.43-1.25.69s-.56.39-.83.61c-.56.43-1.1.91-1.66,1.33a20.73,20.73,0,0,1-2.89,1.68c-1.21.62-2.43,1.22-3.66,1.81l-1,.47a3.05,3.05,0,0,0-.78.41,3,3,0,0,0-.83,1.55,2,2,0,0,0,0,1.53,7.82,7.82,0,0,0,1,1,6.46,6.46,0,0,1,1.28,1.78,6.43,6.43,0,0,1,.33,2.36,5.58,5.58,0,0,1,0,1.08,1,1,0,0,1-.17.44.45.45,0,0,1-.41.2.62.62,0,0,1-.31-.2c-.14-.11-.27-.24-.44-.2s-.12.05-.18.06c-.22.06-.44-.11-.66-.09a1.58,1.58,0,0,0-.36.14,1,1,0,0,1-.75-.1c-.22-.11-.43-.27-.66-.4a.48.48,0,0,0-.31-.07l-.17.08c-.54.25-1-.17-1.31-.59a2.08,2.08,0,0,1-.39-1.56,8.61,8.61,0,0,0,.18-1.83c0-2.24-.72-4.47-.16-6.69a5.15,5.15,0,0,1,2.24-2.55c.78-.57,3.74-2.63,4.41-3.14,1.16-.91,2.29-1.87,3.4-2.83l.41-.37.58-.5.18-.16c.36-.31.72-.61,1.1-.9.21-.17.42-.33.64-.48a19.77,19.77,0,0,1,4-2.26c.23-.09.45-.18.69-.26h0S70.32,25.3,70.32,25.32Z"/><path class="cls-11" d="M69.15,33.18c-.38.27-.84.43-1.25.69s-.56.39-.83.61c-.56.43-1.1.91-1.66,1.33a20.73,20.73,0,0,1-2.89,1.68c-1.21.62-2.43,1.22-3.66,1.81l-1,.47a3.05,3.05,0,0,0-.78.41,3,3,0,0,0-.83,1.55,2,2,0,0,0,0,1.53,7.82,7.82,0,0,0,1,1,6.46,6.46,0,0,1,1.28,1.78,6.43,6.43,0,0,1,.33,2.36,5.58,5.58,0,0,1,0,1.08,1,1,0,0,1-.17.44.45.45,0,0,1-.41.2.62.62,0,0,1-.31-.2,8.81,8.81,0,0,0-.69-3.69c-.4-.92-1-1.77-1.37-2.68a4.83,4.83,0,0,1-.5-2.92c.34-1.72,2-2.82,3.61-3.48s3.37-1.12,4.63-2.32a1.79,1.79,0,0,0,.69-1.48c-.07-.53-.61-1-.86-1.45a7,7,0,0,1-.67-1.75l.41-.37.58-.5.18-.16c.36-.31.72-.61,1.1-.9.21-.17.42-.33.64-.48a5.45,5.45,0,0,1,2.28,1.61,6.06,6.06,0,0,1,.94,1.51C68.9,31.67,69,32.42,69.15,33.18Z"/><path class="cls-12" d="M70.33,25a.83.83,0,0,0,0,.31h0s0,0,0,.05a3.89,3.89,0,0,0-1,1.36h0a5.38,5.38,0,0,0-.31.81,7.26,7.26,0,0,0-.24,1.55,10.75,10.75,0,0,0,0,1.39c0,.16,0,.31,0,.46.07.77.18,1.52.32,2.28,0,.24.1.48.14.71l-1.54.71a.47.47,0,0,1-.2.06.25.25,0,0,1-.11,0l-.37-.14a7.42,7.42,0,0,1-3.94-4.59.19.19,0,0,1,0-.07.34.34,0,0,1,0-.2.52.52,0,0,1,.15-.27,14.28,14.28,0,0,1,5-4,7.11,7.11,0,0,1,2.11-.74A3.11,3.11,0,0,1,70.33,25Z"/><path class="cls-9" d="M69.15,33.18c0,.24.1.48.14.71l-1.54.71a.47.47,0,0,1-.2.06.25.25,0,0,1-.11,0l-.37-.14a7.11,7.11,0,0,1-2.21-1.6,15.32,15.32,0,0,0,3-3.49,3.28,3.28,0,0,0,.2-.31c.42-.69.71-1.42,1.06-2.14a1.21,1.21,0,0,1,.17-.25,5.38,5.38,0,0,0-.31.81,7.26,7.26,0,0,0-.24,1.55,10.75,10.75,0,0,0,0,1.39c0,.16,0,.31,0,.46C68.9,31.67,69,32.42,69.15,33.18Z"/></g></g></g></svg>